<?xml version="1.0" encoding="iso-8859-1"?>
<!-- Generator: Adobe Illustrator 18.1.1, SVG Export Plug-In . SVG Version: 6.00 Build 0)  -->
<svg version="1.1" id="Capa_1" xmlns="http://www.w3.org/2000/svg" xmlns:xlink="http://www.w3.org/1999/xlink" x="0px" y="0px"
	 viewBox="0 0 585.072 585.072" style="enable-background:new 0 0 585.072 585.072;" xml:space="preserve">
<g>
	<g>
		<path style="fill:#010002;" d="M350.068,57.528c0,8.16-1.527,15.708-4.59,22.644c-3.061,6.936-7.141,12.954-12.238,18.054
			c-5.102,5.1-11.223,9.18-18.359,12.24c-7.139,3.06-14.586,4.59-22.338,4.59c-8.16,0-15.708-1.53-22.644-4.59
			s-12.954-7.14-18.054-12.24c-5.1-5.1-9.18-11.118-12.24-18.054c-3.06-6.936-4.59-14.484-4.59-22.644
			c0-7.752,1.53-15.198,4.59-22.338s7.14-13.26,12.24-18.36s11.118-9.18,18.054-12.24S284.383,0,292.543,0
			c15.913,0,29.477,5.61,40.698,16.83C344.458,28.05,350.068,41.616,350.068,57.528z M350.679,132.192
			c8.979,0,17.238,1.734,24.787,5.202c7.547,3.468,13.973,8.16,19.277,14.076c5.304,5.916,9.385,12.546,12.238,19.89
			c2.855,7.344,4.283,14.892,4.283,22.644v164.627c0,5.715-1.836,10.1-5.508,13.158c-3.672,3.063-7.65,4.59-11.934,4.59
			s-8.264-1.527-11.936-4.59c-3.672-3.061-5.508-7.443-5.508-13.158V209.917v-6.732c0-2.448-1.326-3.978-3.979-4.59
			c-2.652-0.612-4.797-0.918-6.428-0.918c-1.633,0-3.672,0.408-6.121,1.224c-2.445,0.816-3.672,2.244-3.672,4.284V559.98
			c0,7.344-2.549,13.361-7.646,18.053c-5.104,4.693-11.322,7.039-18.666,7.039c-6.939,0-13.059-2.551-18.361-7.65
			s-7.955-11.115-7.955-18.055V420.443v-79.561c0-3.674-1.428-6.02-4.285-7.037c-2.854-1.021-4.895-1.529-6.119-1.529
			c-1.633,0-4.183,0.51-7.648,1.529c-3.468,1.02-5.202,3.568-5.202,7.648l0.612,78.947v138.926c0,6.939-2.652,12.955-7.956,18.055
			c-5.304,5.102-11.424,7.65-18.36,7.65c-7.344,0-13.566-2.346-18.666-7.039c-5.1-4.689-7.65-10.709-7.65-18.053l-0.612-356.796
			c0-2.04-1.122-3.468-3.366-4.284c-2.244-0.816-4.182-1.224-5.814-1.224s-3.672,0.306-6.12,0.918s-3.672,2.142-3.672,4.59v6.732
			V358.63c0,5.715-1.836,10.1-5.508,13.158c-3.672,3.063-7.65,4.59-11.934,4.59c-4.284,0-8.262-1.527-11.934-4.59
			c-3.672-3.061-5.508-7.443-5.508-13.158V194.005c0-7.752,1.02-15.3,3.06-22.644c2.04-7.344,5.202-13.974,9.486-19.89
			c4.284-5.916,9.69-10.608,16.218-14.076c6.528-3.468,14.484-5.202,23.868-5.202h58.752h1.224h0.612L350.679,132.192
			L350.679,132.192z"/>
	</g>
</g>
<g>
</g>
<g>
</g>
<g>
</g>
<g>
</g>
<g>
</g>
<g>
</g>
<g>
</g>
<g>
</g>
<g>
</g>
<g>
</g>
<g>
</g>
<g>
</g>
<g>
</g>
<g>
</g>
<g>
</g>
</svg>
