<svg width="277" height="316" viewBox="0 0 277 316" fill="none" xmlns="http://www.w3.org/2000/svg">
<path d="M176.656 67.6797C176.656 73.5859 175.648 78.9766 173.633 83.8516C171.617 88.7266 168.875 92.9219 165.406 96.4375C161.938 99.9062 157.859 102.602 153.172 104.523C148.531 106.445 143.539 107.406 138.195 107.406C132.898 107.406 127.906 106.422 123.219 104.453C118.578 102.484 114.5 99.7422 110.984 96.2266C107.516 92.7109 104.773 88.5391 102.758 83.7109C100.742 78.8359 99.7344 73.4922 99.7344 67.6797V0.742188H119V35.8984C120.031 34.5859 121.273 33.4141 122.727 32.3828C124.227 31.3516 125.82 30.5078 127.508 29.8516C129.242 29.1953 131.023 28.7031 132.852 28.375C134.68 28 136.461 27.8125 138.195 27.8125C143.539 27.8125 148.531 28.8203 153.172 30.8359C157.859 32.8047 161.938 35.5703 165.406 39.1328C168.875 42.6953 171.617 46.9141 173.633 51.7891C175.648 56.6172 176.656 61.9141 176.656 67.6797ZM157.32 67.6797C157.32 64.7734 156.805 62.0781 155.773 59.5938C154.789 57.0625 153.43 54.8828 151.695 53.0547C149.961 51.2266 147.922 49.7969 145.578 48.7656C143.281 47.7344 140.82 47.2188 138.195 47.2188C135.57 47.2188 133.086 47.8047 130.742 48.9766C128.445 50.1016 126.43 51.625 124.695 53.5469C122.961 55.4219 121.602 57.6016 120.617 60.0859C119.633 62.5234 119.141 65.0547 119.141 67.6797C119.141 70.5859 119.633 73.2812 120.617 75.7656C121.602 78.25 122.961 80.4062 124.695 82.2344C126.43 84.0625 128.445 85.5156 130.742 86.5938C133.086 87.625 135.57 88.1406 138.195 88.1406C140.82 88.1406 143.281 87.625 145.578 86.5938C147.922 85.5156 149.961 84.0625 151.695 82.2344C153.43 80.4062 154.789 78.25 155.773 75.7656C156.805 73.2812 157.32 70.5859 157.32 67.6797ZM173.422 211H168.781L161.328 200.664C159.5 202.305 157.555 203.852 155.492 205.305C153.477 206.711 151.344 207.953 149.094 209.031C146.844 210.062 144.523 210.883 142.133 211.492C139.789 212.102 137.398 212.406 134.961 212.406C129.664 212.406 124.672 211.516 119.984 209.734C115.344 207.953 111.266 205.375 107.75 202C104.281 198.578 101.539 194.406 99.5234 189.484C97.5078 184.562 96.5 178.961 96.5 172.68C96.5 166.82 97.5078 161.453 99.5234 156.578C101.539 151.656 104.281 147.438 107.75 143.922C111.266 140.406 115.344 137.688 119.984 135.766C124.672 133.797 129.664 132.812 134.961 132.812C137.398 132.812 139.812 133.117 142.203 133.727C144.594 134.336 146.914 135.18 149.164 136.258C151.414 137.336 153.547 138.602 155.562 140.055C157.625 141.508 159.547 143.078 161.328 144.766L168.781 135.836H173.422V211ZM154.086 172.68C154.086 170.055 153.57 167.523 152.539 165.086C151.555 162.602 150.195 160.422 148.461 158.547C146.727 156.625 144.688 155.102 142.344 153.977C140.047 152.805 137.586 152.219 134.961 152.219C132.336 152.219 129.852 152.664 127.508 153.555C125.211 154.445 123.195 155.758 121.461 157.492C119.773 159.227 118.438 161.383 117.453 163.961C116.469 166.492 115.977 169.398 115.977 172.68C115.977 175.961 116.469 178.891 117.453 181.469C118.438 184 119.773 186.133 121.461 187.867C123.195 189.602 125.211 190.914 127.508 191.805C129.852 192.695 132.336 193.141 134.961 193.141C137.586 193.141 140.047 192.578 142.344 191.453C144.688 190.281 146.727 188.758 148.461 186.883C150.195 184.961 151.555 182.781 152.539 180.344C153.57 177.859 154.086 175.305 154.086 172.68ZM123.008 316H103.812V240.695H108.453L114.781 248.008C117.875 245.195 121.367 243.039 125.258 241.539C129.195 239.992 133.297 239.219 137.562 239.219C142.156 239.219 146.492 240.109 150.57 241.891C154.648 243.625 158.211 246.039 161.258 249.133C164.305 252.18 166.695 255.766 168.43 259.891C170.211 263.969 171.102 268.328 171.102 272.969V316H151.906V272.969C151.906 271 151.531 269.148 150.781 267.414C150.031 265.633 149 264.086 147.688 262.773C146.375 261.461 144.852 260.43 143.117 259.68C141.383 258.93 139.531 258.555 137.562 258.555C135.547 258.555 133.648 258.93 131.867 259.68C130.086 260.43 128.539 261.461 127.227 262.773C125.914 264.086 124.883 265.633 124.133 267.414C123.383 269.148 123.008 271 123.008 272.969V316Z" fill="#EBEBEB"/>
<path d="M26.9113 211H7.57532V105.742H26.9113V172.117L55.5284 135.836H77.6066L52.6456 167.195L77.6066 211H55.5284L40.2706 183.648L26.9113 201.367V211ZM222.245 211H203.05V135.695H207.69L214.018 143.008C217.112 140.195 220.604 138.039 224.495 136.539C228.433 134.992 232.534 134.219 236.8 134.219C241.393 134.219 245.729 135.109 249.808 136.891C253.886 138.625 257.448 141.039 260.495 144.133C263.542 147.18 265.933 150.766 267.667 154.891C269.448 158.969 270.339 163.328 270.339 167.969V211H251.143V167.969C251.143 166 250.768 164.148 250.018 162.414C249.268 160.633 248.237 159.086 246.925 157.773C245.612 156.461 244.089 155.43 242.354 154.68C240.62 153.93 238.768 153.555 236.8 153.555C234.784 153.555 232.886 153.93 231.104 154.68C229.323 155.43 227.776 156.461 226.464 157.773C225.151 159.086 224.12 160.633 223.37 162.414C222.62 164.148 222.245 166 222.245 167.969V211Z" fill="#EBEBEB"/>
<path d="M173.234 211H168.594L161.141 200.664C159.313 202.305 157.367 203.852 155.305 205.305C153.289 206.711 151.156 207.953 148.906 209.031C146.656 210.062 144.336 210.883 141.945 211.492C139.602 212.102 137.211 212.406 134.773 212.406C129.477 212.406 124.484 211.516 119.797 209.734C115.156 207.953 111.078 205.375 107.563 202C104.094 198.578 101.352 194.406 99.3359 189.484C97.3203 184.562 96.3125 178.961 96.3125 172.68C96.3125 166.82 97.3203 161.453 99.3359 156.578C101.352 151.656 104.094 147.438 107.563 143.922C111.078 140.406 115.156 137.688 119.797 135.766C124.484 133.797 129.477 132.812 134.773 132.812C137.211 132.812 139.625 133.117 142.016 133.727C144.406 134.336 146.727 135.18 148.977 136.258C151.227 137.336 153.359 138.602 155.375 140.055C157.438 141.508 159.359 143.078 161.141 144.766L168.594 135.836H173.234V211ZM153.898 172.68C153.898 170.055 153.383 167.523 152.352 165.086C151.367 162.602 150.008 160.422 148.273 158.547C146.539 156.625 144.5 155.102 142.156 153.977C139.859 152.805 137.398 152.219 134.773 152.219C132.148 152.219 129.664 152.664 127.32 153.555C125.023 154.445 123.008 155.758 121.273 157.492C119.586 159.227 118.25 161.383 117.266 163.961C116.281 166.492 115.789 169.398 115.789 172.68C115.789 175.961 116.281 178.891 117.266 181.469C118.25 184 119.586 186.133 121.273 187.867C123.008 189.602 125.023 190.914 127.32 191.805C129.664 192.695 132.148 193.141 134.773 193.141C137.398 193.141 139.859 192.578 142.156 191.453C144.5 190.281 146.539 188.758 148.273 186.883C150.008 184.961 151.367 182.781 152.352 180.344C153.383 177.859 153.898 175.305 153.898 172.68Z" fill="#E6435B"/>
</svg>
