<?xml version="1.0" ?><svg id="Layer_1" style="enable-background:new 0 0 512 512;" version="1.1" viewBox="0 0 512 512" xml:space="preserve" xmlns="http://www.w3.org/2000/svg" xmlns:xlink="http://www.w3.org/1999/xlink"><g id="XMLID_4926_"><g id="XMLID_4921_"><g id="XMLID_4931_"><polyline id="XMLID_4936_" points="-6887,-3307.9 -6982.9,-3307.9 -6982.9,-3404.3    "/><g id="XMLID_4932_"><path d="M-6879.7-2911.5h-388.1v-500h295.7l92.4,96.7V-2911.5z M-7253.3-2926.1h359V-3309l-84.1-88h-274.9      V-2926.1z" id="XMLID_4933_"/></g></g><g id="XMLID_4927_"><path d="M-6921.2-2953.1h-305.3v-272.3h305.3V-2953.1z M-7211.8-2967.7h276.1v-243.2h-276.1V-2967.7z" id="XMLID_4928_"/></g><g id="XMLID_4924_"><rect height="60.8" id="XMLID_4925_" transform="matrix(0.7516 -0.6596 0.6596 0.7516 398.034 -5322.5303)" width="14.5" x="-6875.1" y="-3220.1"/></g><g id="XMLID_4922_"><rect height="14.5" id="XMLID_4923_" transform="matrix(0.6596 -0.7516 0.7516 0.6596 -80.4516 -6557.1328)" width="60.8" x="-7310.2" y="-3197"/></g></g><path d="M-7305.3-3171.7v164.9h463v-164.9H-7305.3z M-7143.6-3069.4c2.7,3.6,6.3,5.3,10.9,5.3   c4.5,0,7.9-1.2,10.3-3.5c2.3-2.4,3.5-5.8,3.5-10.2h10.6l0.1,0.3c0.1,6.7-2,12-6.5,16.1c-4.4,4.1-10.5,6.1-18,6.1   c-7.7,0-13.9-2.6-18.7-7.8c-4.8-5.2-7.2-11.8-7.2-19.9v-12.6c0-8,2.4-14.7,7.1-19.9s10.9-7.8,18.5-7.8c7.8,0,13.9,2,18.4,5.9   c4.5,4,6.6,9.4,6.5,16.3l-0.1,0.3h-10.7c0-4.4-1.2-7.8-3.6-10.1c-2.4-2.3-5.9-3.5-10.5-3.5c-4.5,0-8,1.8-10.6,5.3   c-2.6,3.6-3.9,8-3.9,13.5v12.7C-7147.5-3077.5-7146.2-3073-7143.6-3069.4z M-7055.4-3060.2c-4.3,3.3-9.9,4.9-16.9,4.9   c-6.7,0-12.6-1.8-17.6-5.4c-5-3.6-7.4-8.6-7.3-15.1l0.1-0.3h10.6c0,4,1.4,6.9,4.1,9c2.7,2,6.1,3,10,3c3.9,0,6.9-0.8,9.1-2.5   c2.2-1.6,3.2-3.9,3.2-6.7c0-2.8-1-5-2.9-6.8c-2-1.8-5.4-3.3-10.4-4.7c-7.1-2-12.6-4.5-16.4-7.7c-3.9-3.2-5.8-7.4-5.8-12.5   c0-5.3,2.1-9.7,6.4-13.2c4.2-3.4,9.7-5.2,16.3-5.2c7.1,0,12.8,1.9,17.1,5.7c4.3,3.8,6.3,8.6,6.2,14.2l-0.1,0.3h-10.6   c0-3.5-1.2-6.2-3.5-8.3c-2.3-2.1-5.4-3.1-9.2-3.1c-3.7,0-6.6,0.9-8.6,2.6c-2,1.8-3,4-3,6.8c0,2.5,1.1,4.6,3.3,6.3   c2.2,1.6,5.9,3.2,11,4.7c6.9,1.9,12.2,4.6,15.8,7.9c3.6,3.3,5.4,7.6,5.4,12.8C-7048.9-3067.8-7051.1-3063.5-7055.4-3060.2z    M-6995.5-3060.2c-4.3,3.3-9.9,4.9-16.9,4.9c-6.7,0-12.6-1.8-17.6-5.4c-5-3.6-7.4-8.6-7.3-15.1l0.1-0.3h10.6c0,4,1.4,6.9,4.1,9   c2.7,2,6.1,3,10,3c3.9,0,6.9-0.8,9.1-2.5c2.2-1.6,3.2-3.9,3.2-6.7c0-2.8-1-5-2.9-6.8c-2-1.8-5.4-3.3-10.4-4.7   c-7.1-2-12.6-4.5-16.4-7.7c-3.9-3.2-5.8-7.4-5.8-12.5c0-5.3,2.1-9.7,6.4-13.2c4.2-3.4,9.7-5.2,16.3-5.2c7.1,0,12.8,1.9,17.1,5.7   c4.3,3.8,6.3,8.6,6.2,14.2l-0.1,0.3h-10.6c0-3.5-1.2-6.2-3.5-8.3c-2.3-2.1-5.4-3.1-9.2-3.1c-3.7,0-6.6,0.9-8.6,2.6   c-2,1.8-3,4-3,6.8c0,2.5,1.1,4.6,3.3,6.3c2.2,1.6,5.9,3.2,11,4.7c6.9,1.9,12.2,4.6,15.8,7.9s5.4,7.6,5.4,12.8   C-6989-3067.8-6991.2-3063.5-6995.5-3060.2z" id="XMLID_7465_"/></g><g id="XMLID_1990_"><g id="XMLID_195_"><g id="XMLID_205_"><g id="XMLID_206_"><path d="M429.5,114.9h-58.3c-18.7,0-33.8-15.3-33.8-34.1V22" id="XMLID_209_"/><g id="XMLID_207_"><path d="M396.8,497H101.5c-21.9,0-39.7-17.8-39.7-39.7V348.5h14v108.8c0,14.2,11.5,25.7,25.7,25.7h295.3       c14.2,0,25.7-11.5,25.7-25.7V113.9L341.3,29H101.5c-14.2,0-25.7,11.5-25.7,25.7v112.6h-14V54.7c0-21.9,17.8-39.7,39.7-39.7       h245.8l89.2,93.3v349.1C436.5,479.2,418.7,497,396.8,497z" id="XMLID_208_"/></g></g></g><g id="XMLID_201_"><path d="M482.5,447.8h-279c-13,0-23.5-10.6-23.5-23.5V322.1c0-13,10.6-23.5,23.5-23.5h279     c13,0,23.5,10.6,23.5,23.5v102.2C506,437.2,495.4,447.8,482.5,447.8z M203.5,312.6c-5.3,0-9.5,4.3-9.5,9.5v102.2     c0,5.3,4.3,9.5,9.5,9.5h279c5.3,0,9.5-4.3,9.5-9.5V322.1c0-5.3-4.3-9.5-9.5-9.5H203.5z" id="XMLID_202_"/></g><rect height="129.2" id="XMLID_200_" width="65.7" x="429.5" y="305.6"/><g id="XMLID_196_"><path d="M107.9,176.9v-9.8c0-2.6-2.1-4.7-4.7-4.7H34.4c-2.6,0-4.7,2.1-4.7,4.7v9.8H107.9z" id="XMLID_199_"/><rect height="6.1" id="XMLID_198_" width="78.2" x="29.7" y="187.6"/><path d="M126.9,279.8h-14.3c-2.6,0-4.7-2.1-4.7-4.7v-62H29.7v62c0,2.6-2.1,4.7-4.7,4.7H10.7     c-3.8,0-6,4.2-3.8,7.3L65,371.2c1.9,2.7,5.8,2.7,7.7,0l58.1-84.1C132.9,284,130.7,279.8,126.9,279.8z" id="XMLID_197_"/></g></g><g id="XMLID_2962_"><path d="M257.5,389.7c0-2.8-1-5.2-3-7c-2-1.8-5.6-3.4-10.7-4.9c-7.3-2-13-4.7-16.9-8c-4-3.3-6-7.6-6-12.9    c0-5.5,2.2-10,6.5-13.6c4.4-3.6,10-5.3,16.8-5.3c7.4,0,13.2,2,17.6,5.9c4.4,3.9,6.5,8.8,6.4,14.6l-0.1,0.3h-10.9    c0-3.6-1.2-6.4-3.6-8.6c-2.4-2.1-5.6-3.2-9.5-3.2c-3.8,0-6.8,0.9-8.9,2.7c-2.1,1.8-3.1,4.1-3.1,7c0,2.6,1.1,4.8,3.4,6.5    c2.3,1.7,6,3.3,11.3,4.8c7.1,2,12.6,4.7,16.3,8.2c3.7,3.4,5.6,7.8,5.6,13.2c0,5.6-2.2,10.1-6.6,13.5c-4.4,3.4-10.2,5-17.4,5    c-6.9,0-12.9-1.8-18.1-5.5c-5.1-3.7-7.6-8.9-7.5-15.6l0.1-0.3h10.9c0,4.1,1.4,7.2,4.2,9.2c2.8,2.1,6.3,3.1,10.3,3.1    c4,0,7.1-0.8,9.4-2.5C256.4,394.9,257.5,392.6,257.5,389.7z" id="XMLID_2967_"/><path d="M305.2,388.7l1.2,5h0.3l1.2-4.9l16.3-49.7h12.1l-24.3,68h-10.8l-24.3-68H289L305.2,388.7z" id="XMLID_2965_"/><path d="M396.8,398c-1.9,2.6-4.9,5-8.9,7.1c-4.1,2.1-9.4,3.1-15.9,3.1c-8,0-14.6-2.6-19.8-7.8    s-7.8-11.9-7.8-20.1v-14.2c0-8.2,2.5-14.9,7.5-20.1c5-5.2,11.5-7.8,19.3-7.8c7.9,0,14.1,2,18.5,6c4.4,4,6.6,9.2,6.4,15.6l-0.1,0.3    h-10.8c0-3.8-1.2-6.9-3.6-9.3s-5.8-3.5-10.3-3.5c-4.7,0-8.5,1.8-11.4,5.3c-2.9,3.5-4.3,8-4.3,13.4v14.3c0,5.5,1.5,10,4.5,13.5    c3,3.5,6.9,5.3,11.8,5.3c3.6,0,6.5-0.4,8.6-1.2c2.1-0.8,3.7-1.8,4.8-3v-14.1h-14.3v-8.5h25.6V398z" id="XMLID_2963_"/></g></g></svg>